<?xml version="1.0" encoding="UTF-8" standalone="no"?><!DOCTYPE svg PUBLIC "-//W3C//DTD SVG 1.1//EN" "http://www.w3.org/Graphics/SVG/1.1/DTD/svg11.dtd"><svg width="100%" height="100%" viewBox="0 0 48 48" version="1.1" xmlns="http://www.w3.org/2000/svg" xmlns:xlink="http://www.w3.org/1999/xlink" xml:space="preserve" xmlns:serif="http://www.serif.com/" style="fill-rule:evenodd;clip-rule:evenodd;stroke-linecap:round;stroke-linejoin:round;stroke-miterlimit:1.5;"><path d="M46,46l-44,0l0,-44l44,0l0,44Zm-42,-42l0,40l40,0l0,-40l-40,0Z" style="fill:#fff;"/><path d="M5,4l0,40" style="fill:none;stroke:#fff;stroke-width:2px;"/><path d="M25,7c9.383,0 17,7.617 17,17c0,9.383 -7.617,17 -17,17c-9.383,0 -17,-7.617 -17,-17c0,-9.383 7.617,-17 17,-17Zm0,9c4.415,0 8,3.585 8,8c0,4.415 -3.585,8 -8,8c-4.415,0 -8,-3.585 -8,-8c0,-4.415 3.585,-8 8,-8Z" style="fill:#fff;"/><path d="M25,15c4.967,0 9,4.033 9,9c0,4.967 -4.033,9 -9,9c-4.967,0 -9,-4.033 -9,-9c0,-4.967 4.033,-9 9,-9Zm0,5c2.208,0 4,1.792 4,4c0,2.208 -1.792,4 -4,4c-2.208,0 -4,-1.792 -4,-4c0,-2.208 1.792,-4 4,-4Z" style="fill:#fff;fill-opacity:0.501961;"/></svg>